# xmcd
#
# Track frame offsets:
#	150
#	13200
#	27675
#	42075
#	57525
#	70350
#	82500
#	96150
#	109275
#	122475
#	135000
#	151650
#	166425
#	179700
#	190350
#	203100
#	217350
#	232650
#	247847
#	262472
#
# Disc length: 3676 seconds
#
# Revision: 0
# Processed by: cddbd v1.5.2PL0 Copyright (c) Steve Scherf et al.
# Submitted via: EasyCDDAExtractor 16.0.6.1
#
DISCID=1c0e5a14
DTITLE=Λύδια Γιώτα - Τραγούδια 45 στροφές-Λύδια Γιώτα 1
DYEAR=1996
DGENRE=Λαϊκή
TTITLE0=Λύδια Γιώτα - Ήρθες, ήρθες [1967, Γιώργου Κοινούση]
TTITLE1=Λύδια Γιώτα - Ποιος δρόμος, ποια χέρια [1969, Τάκη Σούκα-Ηρ. Παπασιδέρ
TTITLE1=η]
TTITLE2=Λύδια Γιώτα - Φύγε για πάντα [1965, Π. Πετσά]
TTITLE3=Λύδια Γιώτα - Ανάθεμα την ομορφιά σου (Γελάστηκα)[1964, Βασ. Τσιτσάνη]
TTITLE4=Λύδια Γιώτα - Με την αγάπη μου έχω μαλώσει [1966, Απ. Καλδάρα]
TTITLE5=Λύδια Γιώτα-Χιώτης Μανώλης - Γύρισε καραβάκι [1963, Π. Πετσά]
TTITLE6=Λύδια Γιώτα-Δαλιάνης Μπάμπης - Δυό φορές, δυό φορές [1967, Μπ. Δαλιάνη
TTITLE6=]
TTITLE7=Λύδια Γιώτα - Το πεζοδρόμιο [1965, Βασ. Καραπατάκη-Α. Αττικού]
TTITLE8=Λύδια Γιώτα-Τσιτσάνης Βασίλης - Περίμενες την ώρα [1964, Βασ. Τσιτσάνη
TTITLE8=]
TTITLE9=Λύδια Γιώτα-Γκίκα Βούλα - Κι εγώ σ' αγαπώ [1970, Γιώργου Κοινούση]
TTITLE10=Λύδια Γιώτα - Ένα δάακρυ καυτό [1968, Γιώργου Κοινούση]
TTITLE11=Λύδια Γιώτα-Καλδάρας Απόστολος - Πόσο θα βαστάξει, πόσο [1964, Απ. Κα
TTITLE11=λδάρα]
TTITLE12=Λύδια Γιώτα - Την αγάπη μας πετάξαμε στο δρόμο [1967, Τ. Σούκα-Ηρ. Πα
TTITLE12=πασιδέρη]
TTITLE13=Λύδια Γιώτα - Ποτέ δεν θα ξεχάσω [1964, Γ. Λαύκα]
TTITLE14=Λύδια Γιώτα - Σιγά, σιγά [1963, Γερ. Κλουβάτου]
TTITLE15=Λύδια Γιώτα - Θάλασσα [1970, Γιώργου Κοινούση]
TTITLE16=Λύδια Γιώτα - Στη χειμωνιάτικη βροχή [1965, Βασ. Καραπατάκη-Α. Αττικο
TTITLE16=ύ]
TTITLE17=Λύδια Γιώτα - Φταίνε, φταίνε [1964, Στρ. Ατταλίδη-Γ. Κονιτόπουλου]
TTITLE18=Λύδια Γιώτα - Σε μιά ταβέρνα [1968, Γιώργου Κοινούση]
TTITLE19=Λύδια Γιώτα-Χιώτης Μανώλης - Μη μ' αρνηθείς [1963, Στρ. Καμενίδη-Χ. Β
TTITLE19=ασιλειάδη]
EXTD=
EXTT0=
EXTT1=
EXTT2=
EXTT3=
EXTT4=
EXTT5=
EXTT6=
EXTT7=
EXTT8=
EXTT9=
EXTT10=
EXTT11=
EXTT12=
EXTT13=
EXTT14=
EXTT15=
EXTT16=
EXTT17=
EXTT18=
EXTT19=
PLAYORDER=
